<svg xmlns="http://www.w3.org/2000/svg" xmlns:xlink="http://www.w3.org/1999/xlink" width="80" zoomAndPan="magnify" viewBox="0 0 60 60" height="80" preserveAspectRatio="xMidYMid meet" version="1.0"><defs><clipPath id="78a3162253"><path d="M 0 2.5625 L 60 2.5625 L 60 57.3125 L 0 57.3125 Z M 0 2.5625 " clip-rule="nonzero"/></clipPath></defs><g clip-path="url(#78a3162253)"><path fill="#000000" d="M 60 55.550781 L 59.496094 57.277344 L 57.78125 56.773438 L 57.886719 56.367188 L 58.90625 56.652344 L 32.746094 11.714844 L 12.898438 45.707031 L 12.539062 45.492188 L 32.761719 10.875 L 59.292969 56.484375 L 59.59375 55.433594 Z M 48.289062 49.109375 L 48.289062 48.691406 L 8.4375 48.667969 L 34.921875 3.414062 L 35.160156 4.445312 L 35.578125 4.335938 L 35.148438 2.601562 L 33.40625 3.019531 L 33.503906 3.425781 L 34.570312 3.175781 L 7.691406 49.085938 Z M 33.539062 16.191406 L 33.167969 16.40625 L 53.339844 50.714844 L 0.828125 50.832031 L 1.585938 50.101562 L 1.285156 49.804688 L 0 51.050781 L 1.246094 52.332031 L 1.546875 52.042969 L 0.792969 51.253906 L 54.070312 51.132812 Z M 33.539062 16.191406 " fill-opacity="1" fill-rule="nonzero"/></g></svg>
